{
  "accessors": [
    {
      "bufferView": 2,
      "componentType": 5126,
      "count": 24154,
      "max": [
        76.41105651855469,
        44.636112213134766,
        24.036563873291016
      ],
      "min": [
        -75.39501953125,
        -41.90871047973633,
        -27.17099952697754
      ],
      "type": "VEC3"
    },
    {
      "bufferView": 2,
      "byteOffset": 289848,
      "componentType": 5126,
      "count": 24154,
      "max": [
        0.9997471570968628,
        0.999984622001648,
        0.9999756813049316
      ],
      "min": [
        -0.9984652996063232,
        -0.9997460842132568,
        -0.9999889135360718
      ],
      "type": "VEC3"
    },
    {
      "bufferView": 3,
      "componentType": 5126,
      "count": 24154,
      "max": [
        0.9745393395423889,
        0.9999905824661255,
        0.9998208284378052,
        1.0
      ],
      "min": [
        -0.9996122717857361,
        -0.9999952912330627,
        -0.9999990463256836,
        -1.0
      ],
      "type": "VEC4"
    },
    {
      "bufferView": 1,
      "componentType": 5126,
      "count": 24154,
      "max": [
        0.9320072531700134,
        0.9776851534843445
      ],
      "min": [
        0.022473949939012527,
        0.031955964863300323
      ],
      "type": "VEC2"
    },
    {
      "bufferView": 0,
      "componentType": 5125,
      "count": 136128,
      "type": "SCALAR"
    }
  ],
  "asset": {
    "extras": {
      "author": "vetanatMunich (https://sketchfab.com/vetanatMunich)",
      "license": "CC-BY-NC-ND-4.0 (http://creativecommons.org/licenses/by-nc-nd/4.0/)",
      "source": "https://sketchfab.com/3d-models/humerus-humerus-dog-7e7933d08131495f85c7e925e86ba815",
      "title": "humerus (humerus) dog"
    },
    "generator": "Sketchfab-15.17.0",
    "version": "2.0"
  },
  "bufferViews": [
    {
      "buffer": 0,
      "byteLength": 544512,
      "name": "floatBufferViews",
      "target": 34963
    },
    {
      "buffer": 0,
      "byteLength": 193232,
      "byteOffset": 544512,
      "byteStride": 8,
      "name": "floatBufferViews",
      "target": 34962
    },
    {
      "buffer": 0,
      "byteLength": 579696,
      "byteOffset": 737744,
      "byteStride": 12,
      "name": "floatBufferViews",
      "target": 34962
    },
    {
      "buffer": 0,
      "byteLength": 386464,
      "byteOffset": 1317440,
      "byteStride": 16,
      "name": "floatBufferViews",
      "target": 34962
    }
  ],
  "buffers": [
    {
      "byteLength": 1703904,
      "uri": "scene.bin"
    }
  ],
  "images": [
    {
      "uri": "textures/material_0.001_baseColor.jpeg"
    },
    {
      "uri": "textures/material_0.001_normal.jpeg"
    }
  ],
  "materials": [
    {
      "doubleSided": true,
      "name": "material_0.001",
      "normalTexture": {
        "index": 1
      },
      "pbrMetallicRoughness": {
        "baseColorTexture": {
          "index": 0
        },
        "metallicFactor": 0.0,
        "roughnessFactor": 0.6753321656919105
      }
    }
  ],
  "meshes": [
    {
      "name": "Humerus_li_Hund.001_material_0.001_0",
      "primitives": [
        {
          "attributes": {
            "NORMAL": 1,
            "POSITION": 0,
            "TANGENT": 2,
            "TEXCOORD_0": 3
          },
          "indices": 4,
          "material": 0,
          "mode": 4
        }
      ]
    }
  ],
  "nodes": [
    {
      "children": [
        1
      ],
      "matrix": [
        1.0,
        0.0,
        0.0,
        0.0,
        0.0,
        2.220446049250313e-16,
        -1.0,
        0.0,
        0.0,
        1.0,
        2.220446049250313e-16,
        0.0,
        0.0,
        0.0,
        0.0,
        1.0
      ],
      "name": "Sketchfab_model"
    },
    {
      "children": [
        2
      ],
      "matrix": [
        1.0,
        0.0,
        0.0,
        0.0,
        0.0,
        0.0,
        1.0,
        0.0,
        0.0,
        -1.0,
        0.0,
        0.0,
        0.0,
        0.0,
        0.0,
        1.0
      ],
      "name": "264b29d7a7684d1092ebf9f47a70d76f.fbx"
    },
    {
      "children": [
        3
      ],
      "name": "RootNode"
    },
    {
      "children": [
        4
      ],
      "matrix": [
        100.0,
        0.0,
        0.0,
        0.0,
        0.0,
        99.99999999999866,
        1.6292067073209114e-05,
        0.0,
        0.0,
        -1.6292067073209114e-05,
        99.99999999999866,
        0.0,
        0.0,
        0.0,
        0.0,
        1.0
      ],
      "name": "Humerus_li_Hund.001"
    },
    {
      "mesh": 0,
      "name": "Humerus_li_Hund.001_material_0.001_0"
    }
  ],
  "samplers": [
    {
      "magFilter": 9729,
      "minFilter": 9987,
      "wrapS": 10497,
      "wrapT": 10497
    }
  ],
  "scene": 0,
  "scenes": [
    {
      "name": "Sketchfab_Scene",
      "nodes": [
        0
      ]
    }
  ],
  "textures": [
    {
      "sampler": 0,
      "source": 0
    },
    {
      "sampler": 0,
      "source": 1
    }
  ]
}
